<?xml version="1.0" encoding="iso-8859-1"?>
<!-- Generator: Adobe Illustrator 19.1.0, SVG Export Plug-In . SVG Version: 6.00 Build 0)  -->
<svg xmlns="http://www.w3.org/2000/svg" xmlns:xlink="http://www.w3.org/1999/xlink" version="1.1" id="Capa_1" x="0px" y="0px" viewBox="0 0 300.295 300.295" style="enable-background:new 0 0 300.295 300.295;" xml:space="preserve" width="512px" height="512px">
<g>
	<path d="M284.066,220.185V0L92.269,37.554v183.618c-8.09-7.374-18.839-11.877-30.622-11.877c-25.089,0-45.5,20.411-45.5,45.5   s20.411,45.5,45.5,45.5s45.5-20.411,45.5-45.5c0-0.454-0.021-0.903-0.034-1.354h0.156V107.616l161.798-31.679v113.056   c-8.066-7.266-18.734-11.698-30.42-11.698c-25.089,0-45.5,20.411-45.5,45.5s20.411,45.5,45.5,45.5c25.089,0,45.5-20.411,45.5-45.5   C284.146,221.918,284.115,221.049,284.066,220.185z M61.646,285.295c-16.817,0-30.5-13.683-30.5-30.5s13.683-30.5,30.5-30.5   s30.5,13.683,30.5,30.5S78.464,285.295,61.646,285.295z M107.269,92.33V49.901l161.798-31.679V60.65L107.269,92.33z    M238.646,253.295c-16.817,0-30.5-13.683-30.5-30.5s13.683-30.5,30.5-30.5c16.112,0,29.338,12.562,30.42,28.404v4.192   C267.985,240.733,254.759,253.295,238.646,253.295z" fill="#FFFFFF"/>
	<g>
	</g>
	<g>
	</g>
	<g>
	</g>
	<g>
	</g>
	<g>
	</g>
	<g>
	</g>
	<g>
	</g>
	<g>
	</g>
	<g>
	</g>
	<g>
	</g>
	<g>
	</g>
	<g>
	</g>
	<g>
	</g>
	<g>
	</g>
	<g>
	</g>
</g>
<g>
</g>
<g>
</g>
<g>
</g>
<g>
</g>
<g>
</g>
<g>
</g>
<g>
</g>
<g>
</g>
<g>
</g>
<g>
</g>
<g>
</g>
<g>
</g>
<g>
</g>
<g>
</g>
<g>
</g>
</svg>
