<svg xmlns="http://www.w3.org/2000/svg" viewBox="0 0 64 64" aria-labelledby="title"
aria-describedby="desc" role="img" xmlns:xlink="http://www.w3.org/1999/xlink"
width="128" height="128">
  <title>Headphones User</title>
  <desc>A line styled icon from Orion Icon Library.</desc>
  <path data-name="layer1"
  d="M20.8 36H14a4 4 0 0 1-4-4V22a4 4 0 0 1 4-4h6.8m22.4 18H50a4 4 0 0 0 4-4V22a4 4 0 0 0-4-4h-6.8"
  fill="none" stroke="#ffffff" stroke-miterlimit="10" stroke-width="2" stroke-linejoin="round"
  stroke-linecap="round"></path>
  <path data-name="layer2" d="M39.9 39.4A15.3 15.3 0 0 0 46 27c0-8.3-6.3-15-14-15s-14 6.7-14 15a15.3 15.3 0 0 0 6.1 12.4A24.1 24.1 0 0 0 8 62h48a24.1 24.1 0 0 0-16.1-22.6z"
  fill="none" stroke="#ffffff" stroke-miterlimit="10" stroke-width="2" stroke-linejoin="round"
  stroke-linecap="round"></path>
  <path data-name="layer1" d="M16 18A16 16 0 0 1 32 2a16 16 0 0 1 16 16"
  fill="none" stroke="#ffffff" stroke-miterlimit="10" stroke-width="2" stroke-linejoin="round"
  stroke-linecap="round"></path>
</svg>