<?xml version="1.0" encoding="UTF-8"?>
<svg width="524px" height="444px" viewBox="0 0 524 444" version="1.1" xmlns="http://www.w3.org/2000/svg" xmlns:xlink="http://www.w3.org/1999/xlink">
  <defs>
    <radialGradient cx="92.9403782%" cy="-1.1418124%" fx="92.9403782%" fy="-1.1418124%" r="96.0040657%" gradientTransform="translate(0.929404,-0.011418),scale(0.600000,1.000000),rotate(90.000000),translate(-0.929404,0.011418)" id="radialGradient-1">
      <stop stop-color="#282828" offset="0%"></stop>
      <stop stop-color="#141414" offset="100%"></stop>
    </radialGradient>
  </defs>
  <g id="Page-1" stroke="none" stroke-width="1" fill="none" fill-rule="evenodd">
    <g id="Apple-devices-outline" transform="translate(-108.000000, -481.000000)" fill="#FFFFFF" stroke-width="2">
      <g id="iMac-27&quot;-+-MacBook-Pro-15&quot;-+-iPhone-5s" transform="translate(110.000000, 120.000000)">
        <g id="iMac-27&quot;" transform="translate(0.000000, 363.000000)">
          <path d="M201.91414,356 L320.151598,356 L320.204488,356.944064 C320.212689,357.090456 320.228785,357.374493 320.252444,357.786995 C320.291892,358.474751 320.338241,359.27262 320.391162,360.171424 C320.54238,362.739684 320.715917,365.601562 320.909124,368.683621 C321.461126,377.489179 322.060067,386.29459 322.68473,394.511998 C323.586367,406.372964 324.464716,415.985751 325.289621,422.53911 C325.930627,427.631509 326.561072,430.855787 326.968556,431.402152 C327.889948,432.637575 331.669456,433.642416 338.08702,434.537858 C339.450648,434.728125 344.19576,435.33021 345.087702,435.453927 C346.940037,435.710857 348.194664,435.93115 349.081967,436.174501 C350.662724,436.608039 351.545185,437.2045 350.928294,438.445212 C350.205613,439.898694 342.136213,440.344722 321.805663,440.679422 C307.305288,440.918141 288.895872,440.999764 261.032869,440.999765 C233.169987,440.999766 214.760472,440.918143 200.260075,440.679424 C179.929531,440.344722 171.860125,439.898694 171.137443,438.445212 C170.520553,437.2045 171.403013,436.608039 172.983771,436.174501 C173.871074,435.93115 175.1257,435.710857 176.978036,435.453927 C177.869977,435.33021 182.61509,434.728125 183.978717,434.537858 C190.396282,433.642416 194.17579,432.637575 195.097181,431.402152 C195.504666,430.855787 196.135111,427.631509 196.776117,422.53911 C197.601022,415.985751 198.479371,406.372964 199.381008,394.511998 C200.005671,386.29459 200.604612,377.489179 201.156613,368.683621 C201.349821,365.601562 201.523358,362.739684 201.674576,360.171424 C201.727497,359.27262 201.773846,358.474751 201.813293,357.786995 C201.836953,357.374493 201.853049,357.090456 201.86125,356.944064 L201.91414,356 Z" id="Foot" stroke="#000000"></path>
          <path d="M15.0017929,-1 L504.998207,-1 C513.83535,-1 521,6.16404078 521,15.0009229 L521,332 L-1,332 L-1,15.0009229 C-1,6.16919994 6.16695762,-1 15.0017929,-1 Z" id="blackglass" stroke="#000000"></path>
          <path d="M-1,332 L521,332 L521,364.999683 C521,373.841018 513.838041,381 504.998207,381 L15.0017929,381 C6.1646589,381 -1,373.83624 -1,364.999683 L-1,332 Z" id="alu" stroke="#000000"></path>
          <rect id="pixels" stroke="url(#radialGradient-1)" stroke-linejoin="round" x="22" y="22" width="477" height="287"></rect>
        </g>
      </g>
    </g>
  </g>
</svg>
